<?xml version="1.0" standalone="no"?>
<!DOCTYPE svg PUBLIC "-//W3C//DTD SVG 20010904//EN"
 "http://www.w3.org/TR/2001/REC-SVG-20010904/DTD/svg10.dtd">
<svg version="1.0" xmlns="http://www.w3.org/2000/svg"
 width="700.000000pt" height="700.000000pt" viewBox="0 0 700.000000 700.000000"
 preserveAspectRatio="xMidYMid meet">
<metadata>
Created by potrace 1.11, written by Peter Selinger 2001-2013
</metadata>
<g transform="translate(0.000000,700.000000) scale(0.100000,-0.100000)"
fill="#000000" stroke="none">
<path d="M429 6623 c-49 -129 -179 -728 -224 -1028 -3 -22 -12 -78 -20 -125
-8 -47 -17 -112 -21 -145 -3 -33 -8 -62 -9 -65 -2 -3 -6 -34 -10 -70 -4 -36
-8 -67 -10 -70 -2 -3 -6 -39 -10 -80 -4 -41 -8 -82 -10 -90 -2 -8 -6 -49 -10
-90 -4 -41 -9 -88 -11 -105 -2 -16 -6 -59 -9 -95 -3 -36 -8 -81 -10 -100 -2
-19 -6 -78 -10 -130 -3 -52 -8 -115 -10 -140 -25 -319 -25 -967 0 -1220 2 -19
6 -66 9 -105 4 -38 9 -81 11 -95 3 -14 7 -41 9 -60 9 -79 185 -435 317 -642
35 -55 201 -289 226 -318 11 -14 49 -59 84 -100 79 -94 142 -161 244 -259 118
-114 171 -161 325 -284 177 -142 503 -338 750 -452 323 -148 737 -282 1050
-339 342 -62 418 -70 505 -56 28 4 84 13 125 20 108 16 376 69 435 85 319 87
549 165 752 256 124 55 379 187 453 234 341 216 495 338 745 589 289 290 509
595 690 957 97 193 132 284 139 364 4 39 8 81 11 95 5 32 12 131 22 285 13
224 6 854 -12 1045 -2 19 -6 77 -10 129 -4 52 -8 111 -10 130 -2 20 -6 74 -10
121 -4 47 -8 92 -10 100 -2 8 -7 51 -10 95 -4 44 -8 87 -10 95 -2 8 -11 73
-20 144 -9 71 -18 143 -20 160 -26 177 -45 305 -50 326 -2 13 -7 42 -10 65 -3
22 -12 74 -20 115 -8 41 -17 90 -20 107 -12 76 -48 246 -76 367 -17 72 -32
139 -34 149 -7 30 -67 242 -71 249 -7 11 -273 -153 -444 -274 -54 -38 -266
-196 -295 -220 -11 -9 -74 -60 -140 -114 -66 -54 -133 -110 -150 -125 -16 -14
-57 -50 -90 -79 -53 -47 -159 -143 -250 -225 -68 -62 -368 -349 -499 -478
l-141 -137 -75 6 c-122 10 -160 13 -265 21 -221 17 -1399 8 -1585 -12 -19 -2
-69 -6 -110 -9 l-75 -6 -150 146 c-691 674 -1108 1030 -1540 1315 -152 101
-169 112 -263 168 l-52 31 -11 -27z m796 -3488 c48 -5 68 -8 165 -20 25 -4 65
-11 90 -17 25 -5 56 -12 70 -14 51 -10 230 -74 287 -103 86 -44 91 -49 97
-111 3 -30 10 -77 16 -105 5 -27 11 -63 14 -80 13 -87 73 -332 138 -569 l41
-148 69 228 c110 369 128 424 138 424 22 0 211 -201 263 -281 104 -157 185
-354 222 -535 20 -102 33 -211 26 -222 -3 -4 -31 -7 -61 -6 -87 3 -252 14
-274 19 -12 2 -43 7 -71 10 -92 11 -247 48 -355 85 -118 41 -371 173 -400 209
-3 3 -23 19 -45 36 -50 37 -158 144 -212 210 -149 184 -268 440 -340 730 -14
60 -53 253 -53 267 0 7 68 4 175 -7z m4740 -23 c-4 -20 -9 -48 -11 -62 -12
-66 -57 -243 -81 -315 -31 -96 -112 -286 -142 -335 -11 -19 -24 -42 -28 -50
-27 -59 -150 -223 -226 -301 -220 -229 -557 -391 -922 -445 -27 -4 -52 -8 -55
-9 -12 -3 -239 -19 -285 -19 l-50 -1 1 55 c1 146 52 326 145 513 51 103 146
251 201 314 67 75 162 163 169 156 4 -5 33 -93 64 -198 31 -104 66 -219 77
-255 21 -72 48 -169 48 -175 0 -12 17 -4 17 8 0 6 14 60 31 118 69 236 149
589 167 739 3 30 9 62 11 72 3 9 47 37 98 62 128 62 309 115 451 131 33 4 62
9 65 10 3 2 43 6 90 10 47 4 86 8 87 9 1 1 20 2 43 3 l42 2 -7 -37z"/>
</g>
</svg>
