<?xml version="1.0" encoding="UTF-8" standalone="no"?>
<svg
   xmlns:dc="http://purl.org/dc/elements/1.1/"
   xmlns:cc="http://creativecommons.org/ns#"
   xmlns:rdf="http://www.w3.org/1999/02/22-rdf-syntax-ns#"
   xmlns:svg="http://www.w3.org/2000/svg"
   xmlns="http://www.w3.org/2000/svg"
   viewBox="0 0 1016.1771 229.79599"
   height="229.79599"
   width="1016.1771"
   xml:space="preserve"
   id="svg2"
   version="1.1"><metadata
     id="metadata8"><rdf:RDF><cc:Work
         rdf:about=""><dc:format>image/svg+xml</dc:format><dc:type
           rdf:resource="http://purl.org/dc/dcmitype/StillImage" /><dc:title></dc:title></cc:Work></rdf:RDF></metadata><defs
     id="defs6"><clipPath
       id="clipPath18"
       clipPathUnits="userSpaceOnUse"><path
         id="path16"
         d="M 0,304 H 940 V 0 H 0 Z" /></clipPath></defs><g
     transform="matrix(1.3333333,0,0,-1.3333333,-116.86278,322.96093)"
     id="g10"><g
       id="g12"><g
         clip-path="url(#clipPath18)"
         id="g14"><g
           transform="translate(200.5195,103.3467)"
           id="g20"><path
             id="path22"
             style="fill:#fe5a5f;fill-opacity:1;fill-rule:nonzero;stroke:none"
             d="m 0,0 c 0.688,11.844 6.918,22.994 14.546,28.66 1.62,-6.052 3.534,-11.862 5.199,-17.879 2.462,8.197 4.501,16.912 5.956,26.346 6.317,3.92 14.686,5.311 23.728,5.87 C 45.219,13.541 28.202,-0.118 0,0 m -85.152,42.997 c 9.042,-0.559 17.411,-1.95 23.726,-5.87 1.455,-9.434 3.495,-18.149 5.957,-26.346 1.665,6.017 3.579,11.827 5.198,17.879 C -42.642,22.994 -36.413,11.844 -35.724,0 -63.927,-0.118 -80.943,13.541 -85.152,42.997 M 65.843,138.874 C 44.797,127.069 27.967,110.074 11.008,93.231 0.765,94.446 -8.758,94.77 -17.862,94.58 c -9.105,0.19 -18.626,-0.134 -28.87,-1.349 -16.958,16.843 -33.789,33.838 -54.835,45.643 -6.858,-20.724 -14.674,-73.259 -9.77,-106.186 14.611,-35.008 46.536,-61.006 93.475,-66.161 46.938,5.155 78.863,31.153 93.474,66.161 4.905,32.927 -2.912,85.462 -9.769,106.186" /></g><g
           transform="translate(310.6484,203.8379)"
           id="g24"><path
             id="path26"
             style="fill:#fe5a5f;fill-opacity:1;fill-rule:nonzero;stroke:none"
             d="m 0,0 h 25.584 v -13.312 h 1.664 c 3.188,4.992 7.52,9.012 13,12.064 5.476,3.049 11.544,4.576 18.199,4.576 7.765,0 14.282,-1.804 19.553,-5.408 5.268,-3.607 9.012,-8.044 11.231,-13.312 3.189,5.129 7.697,9.532 13.521,13.208 5.823,3.673 12.895,5.512 21.216,5.512 6.24,0 11.647,-1.007 16.223,-3.016 4.577,-2.012 8.353,-4.82 11.336,-8.424 2.981,-3.607 5.233,-7.94 6.76,-13 1.525,-5.063 2.288,-10.575 2.288,-16.536 v -64.272 h -27.248 v 59.28 c 0,13.865 -5.687,20.8 -17.056,20.8 -3.607,0 -6.795,-0.8 -9.568,-2.392 -2.775,-1.596 -5.096,-3.744 -6.968,-6.448 -1.872,-2.704 -3.328,-5.928 -4.368,-9.672 -1.04,-3.744 -1.559,-7.768 -1.559,-12.064 V -101.92 H 66.56 v 59.28 c 0,13.865 -5.964,20.8 -17.888,20.8 -3.468,0 -6.52,-0.8 -9.152,-2.392 -2.636,-1.596 -4.856,-3.744 -6.657,-6.448 -1.803,-2.704 -3.191,-5.928 -4.16,-9.672 -0.972,-3.744 -1.455,-7.768 -1.455,-12.064 V -101.92 H 0 Z" /></g><g
           transform="translate(563.3662,165.9819)"
           id="g28"><path
             id="path30"
             style="fill:#fe5a5f;fill-opacity:1;fill-rule:nonzero;stroke:none"
             d="m 0,0 c -0.14,1.8 -0.729,3.813 -1.769,6.032 -1.04,2.217 -2.567,4.297 -4.575,6.24 -2.011,1.94 -4.508,3.536 -7.488,4.784 -2.983,1.248 -6.552,1.872 -10.712,1.872 -5.824,0 -10.956,-1.664 -15.393,-4.992 C -44.376,10.608 -47.496,5.96 -49.296,0 Z m 24.752,-39.52 c -4.716,-8.32 -11.06,-15.048 -19.032,-20.176 -7.976,-5.129 -17.716,-7.696 -29.224,-7.696 -7.767,0 -14.943,1.351 -21.528,4.056 -6.588,2.704 -12.308,6.48 -17.16,11.336 -4.856,4.852 -8.632,10.572 -11.336,17.16 -2.704,6.585 -4.056,13.832 -4.056,21.736 0,7.348 1.316,14.316 3.952,20.904 2.632,6.585 6.308,12.34 11.024,17.264 4.712,4.92 10.295,8.84 16.744,11.752 6.448,2.912 13.552,4.368 21.32,4.368 8.18,0 15.46,-1.352 21.84,-4.056 6.376,-2.704 11.716,-6.448 16.016,-11.232 4.296,-4.784 7.556,-10.436 9.776,-16.952 2.217,-6.52 3.328,-13.591 3.328,-21.216 v -2.496 C 26.276,-15.6 26.208,-16.364 26.208,-17.056 26.068,-17.751 26,-18.512 26,-19.344 h -76.752 c 0.553,-4.16 1.696,-7.732 3.432,-10.712 1.732,-2.984 3.881,-5.48 6.448,-7.488 2.564,-2.012 5.372,-3.468 8.424,-4.369 3.049,-0.903 6.169,-1.351 9.36,-1.351 6.239,0 11.404,1.42 15.496,4.264 4.088,2.84 7.313,6.412 9.672,10.711 z" /></g><g
           transform="translate(592.2783,203.8379)"
           id="g32"><path
             id="path34"
             style="fill:#fe5a5f;fill-opacity:1;fill-rule:nonzero;stroke:none"
             d="M 0,0 H 30.576 L 47.424,-63.856 H 48.88 L 69.056,0 h 28.08 l 20.384,-63.856 h 1.456 L 135.616,0 h 30.16 L 133.12,-101.92 H 103.792 L 83.408,-37.648 H 81.952 L 61.568,-101.92 H 32.656 Z" /></g><g
           transform="translate(763.4609,124.3818)"
           id="g36"><path
             id="path38"
             style="fill:#fe5a5f;fill-opacity:1;fill-rule:nonzero;stroke:none"
             d="M 0,0 52,56.16 H 1.664 V 79.456 H 85.487 V 56.992 l -52,-56.16 H 86.319 V -22.464 H 0 Z" /></g></g></g></g></svg>